<svg width="210" height="54" viewBox="0 0 210 54" fill="none" xmlns="http://www.w3.org/2000/svg">
<path d="M0 7.75222H7.125V45.1585H30.875V52.5022H0V7.75222Z" fill="white"/>
<path d="M41.5 37.1272C41.5 40.398 42.1771 42.8251 43.5312 44.4085C44.9062 45.9918 46.9688 46.7835 49.7188 46.7835C51.5938 46.7835 53.2917 46.3043 54.8125 45.346C56.3542 44.3876 57.5729 43.0126 58.4688 41.221C59.3646 39.4293 59.8125 37.3355 59.8125 34.9397V20.596H66.0312V52.5022H59.4062L60.6562 39.9397H60.4062C59.3646 44.7939 57.7292 48.273 55.5 50.3772C53.2708 52.4605 50.4583 53.5022 47.0625 53.5022C39.2292 53.5022 35.3125 48.5439 35.3125 38.6272V20.596H41.5V37.1272Z" fill="white"/>
<path d="M78.625 20.596L77.4688 33.1272H77.7188C78.2604 30.3147 79.1042 27.898 80.25 25.8772C81.4167 23.8355 82.8333 22.2835 84.5 21.221C86.1875 20.1376 88.0521 19.596 90.0938 19.596C93.0729 19.596 95.3333 20.648 96.875 22.7522C98.4375 24.8355 99.2188 27.8668 99.2188 31.846C99.2188 32.4085 99.2083 32.8355 99.1875 33.1272H99.4688C100.281 28.5647 101.781 25.1689 103.969 22.9397C106.156 20.7105 108.781 19.596 111.844 19.596C114.406 19.596 116.438 20.1793 117.938 21.346C119.438 22.4918 120.49 24.1272 121.094 26.2522C121.698 28.3772 122 31.0126 122 34.1585V52.5022H115.812V35.1272C115.812 31.9605 115.271 29.7001 114.188 28.346C113.125 26.971 111.49 26.2835 109.281 26.2835C107.74 26.2835 106.281 26.721 104.906 27.596C103.552 28.4501 102.438 29.7105 101.562 31.3772C100.688 33.0439 100.219 35.0335 100.156 37.346V52.5022H93.9375V35.3147C93.9375 32.1272 93.4062 29.8251 92.3438 28.4085C91.2812 26.9918 89.6667 26.2835 87.5 26.2835C85.9375 26.2835 84.4479 26.7626 83.0312 27.721C81.6146 28.6585 80.4688 30.0126 79.5938 31.7835C78.7188 33.5335 78.2812 35.5647 78.2812 37.8772V52.5022H72.0938V20.596H78.625Z" fill="white"/>
<path d="M127.781 20.596C128.865 20.8251 129.906 20.9397 130.906 20.9397C131.885 20.9397 132.917 20.8251 134 20.596V52.5022H127.781V20.596Z" fill="white"/>
<path d="M164.719 36.0022C164.719 32.6897 164.083 30.2418 162.812 28.6585C161.562 27.0751 159.573 26.2835 156.844 26.2835C154.885 26.2835 153.094 26.7939 151.469 27.8147C149.865 28.8355 148.594 30.273 147.656 32.1272C146.74 33.9605 146.281 36.0439 146.281 38.3772V52.5022H140.094V20.596H146.719L145.406 33.6897H145.719C146.573 29.0855 148.188 25.5855 150.562 23.1897C152.938 20.7939 155.948 19.596 159.594 19.596C163.677 19.596 166.583 20.8876 168.312 23.471C170.042 26.0335 170.906 29.6897 170.906 34.4397V52.5022H164.719V36.0022Z" fill="white"/>
<path d="M207.312 46.8147C208.167 46.8147 208.875 46.6897 209.438 46.4397V52.5022C208.833 52.773 208.146 53.0022 207.375 53.1897C206.604 53.3772 205.812 53.471 205 53.471C203.854 53.471 202.938 53.2418 202.25 52.7835C201.562 52.3251 201.052 51.5751 200.719 50.5335C200.406 49.4918 200.25 48.0751 200.25 46.2835C200.25 45.0335 200.354 43.2418 200.562 40.9085H200.281C199.365 44.9918 197.583 48.1168 194.938 50.2835C192.312 52.4293 189.115 53.5022 185.344 53.5022C183.448 53.5022 181.729 53.1793 180.188 52.5335C178.667 51.9085 177.448 50.9501 176.531 49.6585C175.635 48.3668 175.188 46.773 175.188 44.8772C175.188 42.3772 176.052 40.398 177.781 38.9397C179.531 37.4814 182.021 36.4501 185.25 35.846C188.5 35.2418 192.562 34.9397 197.438 34.9397L199.562 34.971V33.471C199.562 30.9501 198.875 29.0543 197.5 27.7835C196.146 26.5126 194.062 25.8772 191.25 25.8772C189.771 25.8772 188.375 26.1168 187.062 26.596C185.75 27.0751 184.677 27.7939 183.844 28.7522C183.031 29.7105 182.625 30.8668 182.625 32.221C182.625 32.8043 182.698 33.3876 182.844 33.971L178.406 33.3772C178.031 32.2105 177.844 31.0751 177.844 29.971C177.844 28.0126 178.406 26.2522 179.531 24.6897C180.656 23.1064 182.26 21.8668 184.344 20.971C186.448 20.0543 188.885 19.596 191.656 19.596C196.052 19.596 199.5 20.6897 202 22.8772C204.5 25.0439 205.75 28.398 205.75 32.9397V43.5022C205.75 44.6689 205.865 45.5126 206.094 46.0335C206.323 46.5543 206.729 46.8147 207.312 46.8147ZM187.938 47.4085C190.062 47.4085 192 47.0126 193.75 46.221C195.521 45.4293 196.927 44.221 197.969 42.596C199.031 40.971 199.562 38.9814 199.562 36.6272H197.938C192.458 36.6272 188.302 37.1585 185.469 38.221C182.656 39.2626 181.25 40.8147 181.25 42.8772C181.25 44.3355 181.854 45.4605 183.062 46.2522C184.292 47.023 185.917 47.4085 187.938 47.4085Z" fill="white"/>
<path d="M129.896 0.599646C130.245 -0.199881 131.38 -0.199882 131.729 0.599644L133.544 4.75457C133.645 4.98543 133.829 5.16972 134.06 5.27058L138.215 7.08586C139.015 7.43517 139.015 8.56927 138.215 8.91858L134.06 10.7339C133.829 10.8347 133.645 11.019 133.544 11.2499L131.729 15.4048C131.38 16.2043 130.245 16.2043 129.896 15.4048L128.081 11.2499C127.98 11.019 127.796 10.8347 127.565 10.7339L123.41 8.91858C122.61 8.56927 122.61 7.43517 123.41 7.08586L127.565 5.27058C127.796 5.16972 127.98 4.98543 128.081 4.75457L129.896 0.599646Z" fill="#5F8CD7"/>
</svg>
