<svg width="25" height="25" viewBox="0 0 25 25" fill="none" xmlns="http://www.w3.org/2000/svg">
<path d="M11.0686 0.936687C11.6142 -0.312228 13.3858 -0.31223 13.9314 0.936685L16.767 7.42697C16.9246 7.78758 17.2124 8.07545 17.573 8.233L24.0633 11.0686C25.3122 11.6142 25.3122 13.3858 24.0633 13.9314L17.573 16.767C17.2124 16.9246 16.9246 17.2124 16.767 17.573L13.9314 24.0633C13.3858 25.3122 11.6142 25.3122 11.0686 24.0633L8.23299 17.573C8.07544 17.2124 7.78758 16.9246 7.42697 16.767L0.936686 13.9314C-0.312229 13.3858 -0.312229 11.6142 0.936686 11.0686L7.42697 8.233C7.78758 8.07545 8.07544 7.78758 8.23299 7.42697L11.0686 0.936687Z" fill="white"/>
<path d="M11.0686 0.936687C11.6142 -0.312228 13.3858 -0.31223 13.9314 0.936685L16.767 7.42697C16.9246 7.78758 17.2124 8.07545 17.573 8.233L24.0633 11.0686C25.3122 11.6142 25.3122 13.3858 24.0633 13.9314L17.573 16.767C17.2124 16.9246 16.9246 17.2124 16.767 17.573L13.9314 24.0633C13.3858 25.3122 11.6142 25.3122 11.0686 24.0633L8.23299 17.573C8.07544 17.2124 7.78758 16.9246 7.42697 16.767L0.936686 13.9314C-0.312229 13.3858 -0.312229 11.6142 0.936686 11.0686L7.42697 8.233C7.78758 8.07545 8.07544 7.78758 8.23299 7.42697L11.0686 0.936687Z" fill="url(#paint0_linear_8_33)"/>
<defs>
<linearGradient id="paint0_linear_8_33" x1="0" y1="12.5" x2="25" y2="12.5" gradientUnits="userSpaceOnUse">
<stop stop-color="#5976D3"/>
<stop offset="0.764423" stop-color="#4D70E3"/>
</linearGradient>
</defs>
</svg>
